<svg xmlns="http://www.w3.org/2000/svg" viewBox="0 0 1423.33 818.95" fill="currentColor">
  <g id="logo-baseline">
    <path d="M430.29 644.78C425.14 640.89 421.74 587.99 420.78 578.64L414.65 507C412.82 488.86 411.84 468.36 409.43 450.42L407.08 421.86L404.18 421.86L369.76 610.2C368.87 614.41 367.53 618.4 367.44 622.79C364.35 620.46 363.67 614.49 362.05 610.37C360.1 605.37 358.99 601.49 357.08 596.51C351.77 582.63 348.19 569.11 342.58 555.52C339.66 548.45 330.81 517.85 326.83 514.83C321.78 518.32 310.71 549.62 308.33 555.69L295.25 587.15C293.91 590.24 291.69 594.94 291.05 597.8C278.55 597.8 266.09 599.82 254.34 599.83C227.36 599.86 190.48 604.47 162.41 604.76L108.16 608.65C93.31 610.37 59.65 610.5 43.56 611.85L7.54 614.59C1.89 615.13 1.2 613.16 0 617.79C12.58 617.79 25.17 617.85 37.74 617.83C44.28 617.82 48.49 616.77 56.08 616.79C62.24 616.81 69.39 617.14 75.43 616.8C81.34 616.47 86.39 615.79 93.79 615.79L131.52 614.81C138.89 614.85 142.26 613.75 149.87 613.79C156 613.82 162.14 613.79 168.27 613.82C175.25 613.85 178.95 612.76 186.62 612.79C193.07 612.82 199.54 612.84 205.99 612.83C212.52 612.82 216.74 611.78 224.33 611.79C230.78 611.81 237.22 611.78 243.67 611.8C251.26 611.81 255.47 610.77 262.01 610.76C268.46 610.75 274.93 610.77 281.39 610.8C288.98 610.84 292.35 609.8 299.75 609.8C300.88 604.77 303.79 599.78 305.69 594.94L312.31 579.8C314.44 575.37 316.7 570.31 318.68 565.39C320.05 561.98 320.67 560.64 321.99 557.82C323.39 554.84 323.55 552.56 325.86 550.82C329.36 566.34 340.45 598.58 346.04 615.92L356.25 648.35C369.84 696.77 375.39 674.81 381.06 645.88C382.22 639.98 383.12 634.64 384.03 627.95C387.14 604.97 392.41 577.99 396.85 555.23C397.56 551.57 397.91 549.61 398.49 545.93C398.7 544.55 398.9 543.04 399.28 541.75C400.05 539.07 399.81 539.57 401.28 537.82C401.28 549.14 403.26 560.12 404.74 571.23L428.09 775.01C428.83 781.31 428.72 802.61 434.16 806.73C438.81 803.2 437.48 793.63 438.08 785.79C438.59 779.02 439.36 768.46 439.91 761.69C440.21 757.89 439.81 753.57 439.93 749.72C440.26 738.01 442 724.21 441.88 712.76L444.65 664.63C445.11 660.38 444.56 656.05 444.79 651.78C445.39 640.22 446.82 626.38 446.72 614.78L449.07 566.23C450.22 558.34 449.19 550.01 449.62 541.81L451.54 479.82C451.51 474.01 452.29 472.49 452.53 467.85L453.49 416.86C453.49 413.04 453.79 416.5 452.53 413.86C450.42 414.65 450.32 414.35 449.23 417.45L447.67 439.83C447.7 446.53 446.97 448.79 446.72 454.84L432.52 631.1C431.75 635.84 430.38 640.46 430.29 644.78Z"/>
    <path d="M1010.45 806.73C1015.64 802.8 1015.56 783.74 1016.54 776.04L1027.77 673.69C1030.37 650.66 1032.33 629.3 1034.8 605.98C1035.96 595.01 1037.88 583.83 1038.52 571.84C1038.79 566.76 1040.32 543.72 1043.33 538.82C1043.71 543.62 1045.39 550.62 1046.22 555.82C1047.2 561.97 1048.38 566.98 1049.54 573.39L1060.72 643.8C1061.71 649.93 1062.89 655.06 1064.19 661.21C1066.28 671.13 1068.27 672.27 1069.43 676.77C1076.33 676.62 1076.86 671.13 1079.13 665.81C1085.05 651.98 1096.69 609.98 1101.67 592.14C1105.53 578.3 1110.76 564.79 1113.91 550.82C1118.2 555.92 1131.29 591.53 1135.21 600.77C1139.15 610.07 1136.71 609.8 1148.77 610.75C1155.72 611.29 1164.79 610.8 1171.95 610.77C1179.48 610.74 1185.49 611.8 1194.17 611.8C1210.84 611.79 1224.04 612.8 1240.58 612.8L1353.71 616.8C1361.07 616.76 1369.7 616.39 1376.92 616.79L1399.16 617.79C1407.22 617.79 1415.28 617.79 1423.33 617.79C1422.2 613.39 1422.73 615.14 1417.69 614.63L1356.88 610.52C1346.22 609.02 1306.1 608.12 1286.85 605.95C1284 605.62 1281.17 605.97 1278.35 605.74C1274.68 605.45 1274.31 604.81 1269.63 604.76C1262.51 604.69 1258.08 603.82 1252.22 603.76C1239.69 603.63 1229.44 601.78 1217.35 601.83C1200.43 601.89 1183.01 598.68 1165.14 598.82C1158.23 598.88 1154.42 597.8 1146.79 597.8C1145 589.85 1122.21 533.82 1118.34 524.25C1116.77 520.36 1115.92 516.89 1112.95 514.83C1109.46 517.47 1104.02 536.97 1102.68 541.2L1074.27 622.79C1073.31 610.83 1055.61 517.35 1051.77 496.1C1050.38 488.4 1048.38 479.56 1047.25 470.79L1041.27 431.99C1040.58 427.68 1040.46 423.08 1037.52 420.86C1035.2 425.88 1035.29 440.86 1034.35 448.57L1026.88 533.81C1026.41 552.87 1022.64 571.42 1022.06 590.8C1021.76 600.54 1020.24 610.28 1019.32 618.97L1016.87 639.43C1016.09 643.89 1016.84 642.88 1014.32 644.78C1014.23 640.71 1012.98 635.8 1012.43 631.74C1009.13 607.12 1009.36 584.28 1006.31 560.09C1005.21 551.32 1005.55 540.72 1004.51 530.97C1002.54 512.63 1001.94 492.09 999.96 473.7L995.95 414.86L992.08 414.86C992.08 432.49 993.13 447.13 993.03 464.86L993.98 501.87C994.13 506.98 995 508.01 995.01 513.79C995.03 527.14 997.01 604.64 998.29 613.37C1000.07 625.52 998.92 637.89 999.86 649.73C1000.21 654.03 1000.85 656.04 1000.79 661.77C1000.7 670.51 1001.6 677.24 1001.71 686.81C1001.77 692.36 1002.69 693.17 1002.75 698.73C1002.8 702.85 1002.44 707.68 1002.77 711.71C1003.25 717.78 1003.16 728.98 1004.09 735.33C1005.3 743.61 1006.29 782.91 1007.45 796.83C1007.89 802.02 1007.27 804.32 1010.45 806.73Z"/>
  </g>
  <g id="logo-bars">
    <path d="M490.24 664.78C494.26 646.94 493.31 640.67 494.1 624.79C494.32 620.45 494.86 621.14 495.08 616.8C495.22 613.89 494.92 610.7 495.07 607.79C495.29 603.47 495.82 604.13 496.04 599.8C498.42 554.05 497.97 511.71 497.97 465.84C497.97 445.31 496.98 427.67 497.01 407.86C497.03 389.01 495.06 368.82 495.07 349.88C495.07 345.3 495.24 340.4 495.1 335.86C494.95 330.54 494.06 328.33 494.09 321.91C494.18 305.85 494.45 278.88 492.44 263.64C491.13 253.8 492.28 244.97 490.24 235.92L487.34 235.92L482.51 328.9C482.55 335.33 481.66 337.54 481.5 342.85C481.24 351.99 482.01 361.84 481.54 370.88C481.29 375.67 480.52 377.77 480.56 383.86C480.68 407.12 478.63 426.59 478.63 452.85C478.63 471.79 477.73 488.29 477.66 507.83L484.95 655.25C485.8 661.05 485.06 664.33 490.24 664.78Z"/>
    <path d="M525.05 418.86C525.05 425.86 525.07 432.86 525.04 439.86C525.01 448.34 526.06 452.57 526.02 460.84L528.91 523.83C529.28 531.74 529.87 536.81 529.85 544.85C529.84 549.83 530.67 560 531.4 565.24C532.36 572.17 531.53 579.66 535.68 582.81C539.58 579.85 539.02 574.48 539.73 567.99L545.37 459.86L545.35 395.87C545.35 374.37 544.38 355.57 544.39 334.89C544.39 310.85 542.32 285 542.47 258.9C542.5 252.17 541.52 249.83 541.45 243.96C541.32 233.64 542.36 222.31 540.93 212.51L538.58 159.95C538.4 155.61 537.92 156.72 537.62 152.95L534.72 152.95C534.72 158.37 534.12 162.97 533.69 168.88L530.88 217.96C530.72 223.54 529.85 226.99 529.88 233.92C529.96 256.85 527.84 279.73 527.96 300.91C528 307.92 526.96 310.43 526.95 316.86C526.94 322.53 527.09 328.27 527.02 333.93C526.95 340.01 525.99 343.62 526.01 350.88C526.1 374.31 525.05 394.97 525.05 418.86Z"/>
    <path d="M572.43 264.91C572.43 293.81 573.51 322.46 574.33 350.92C574.47 355.87 575.23 355.91 575.36 360.85L579.4 422.65C579.87 426.45 580.22 427.89 583.06 429.86C586.84 427 586.61 420.41 586.96 413.89C587.25 408.38 588.4 400.21 588.81 394.81L591.73 313.86C591.74 306.97 592.74 301.99 592.73 293.9L591.77 192.94C591.77 180.96 590.77 172.06 590.8 160.95C590.81 155.61 590.78 150.28 590.81 144.95L585.97 8.99C585.76 4.51 585.09 5.37 585 1L582.1 1L576.31 113.98C576.35 121.22 575.28 123.96 575.31 130.93C575.35 143.33 574.35 152.28 574.36 163.94C574.38 176.33 573.39 185.07 573.39 196.93C573.41 220.77 572.43 241.16 572.43 264.91Z"/>
    <path d="M619.81 343.89L621.71 440.89C621.85 445.67 622.49 445.45 622.71 449.85L624.57 479.92C625.06 486.38 625.04 493.05 625.87 499.56C626.95 507.98 625.88 510.79 629.48 517.83C633.94 514.73 634.22 508.64 634.32 500.84C634.51 485.43 638.3 458.09 638.19 438.87C638.04 412.71 640.11 380.24 640.11 352.88C640.11 329.36 639.15 309.29 639.15 285.9L638.21 235.89C638.2 229.46 637.16 226.95 637.2 219.94C637.31 200.04 635.21 172.97 635.28 153.95L633.29 96.02C632.99 92.16 632.38 92.62 632.38 87.97L629.48 87.97C626.49 101.24 626.6 136.82 625.56 149.9C623.64 173.93 621.73 223.96 621.74 245.92C621.74 251.25 621.72 256.59 621.75 261.93C621.79 268.93 620.75 271.44 620.74 277.87C620.71 300.77 619.81 320.64 619.81 343.89Z"/>
    <path d="M675.89 604.8C682.87 602.87 680.77 586.8 682.39 574.54C684.3 560.12 686.53 472.77 686.53 467.84L686.53 408.86C686.53 387.73 685.56 369.14 685.56 348.88L680.32 187.36C679.1 178.66 681.26 176.59 676.86 174.94C675.39 178.11 671.97 230.05 672.04 239.94L670.08 279.9C669.61 288.94 670.38 298.79 670.12 307.93L669.13 334.9C669.21 349.45 667.19 373.82 667.19 389.87C667.19 426.88 665.21 463.71 668.1 499.89C668.46 504.34 667.92 509.35 668.15 513.83C668.4 518.64 669.19 520.7 669.13 526.81C669.02 538.53 672.33 587.02 674.1 598.65C674.62 602.1 675.14 601.49 675.89 604.8Z"/>
    <path d="M713.6 499.83C713.6 514.02 714.62 524.57 714.56 538.82L715.53 567.82C715.95 575.87 717.38 585.12 717.44 595.83L721.4 641.72C722.15 646.42 721.68 647.4 726.17 647.78C731.93 622.23 729.22 616.86 731.83 592.66C732.37 587.68 731.79 583.44 732.53 578.39C734.44 565.32 733.91 472.05 733.91 463.85C733.91 445.29 732.88 429.68 732.94 411.86C733.01 391.55 729.93 356.07 730.03 335.89C730.1 321.53 729.24 279.95 727.09 265.96C726.48 261.96 726.66 262.82 724.24 261.91C722.8 265 719.34 311.6 719.38 318.87C719.49 335.98 717.39 360.97 717.47 378.88C717.51 385.23 716.76 387.9 716.5 392.86C716.23 398.04 716.78 403.7 716.51 408.87C716.25 413.83 715.5 416.5 715.53 422.85C715.55 428.03 715.94 433.5 715.27 438.58C714.18 446.82 714.53 458.93 714.58 468.86C714.62 475.59 713.63 477.93 713.56 483.8C713.5 489.1 713.6 494.51 713.6 499.83Z"/>
    <path d="M770.65 604.8C775.27 603.52 774.88 599.79 775.58 591.9C776.01 587.05 776.77 579.37 777.28 574.66L780.31 502.82C780.26 495.37 781.34 492.3 781.3 484.85L781.29 411.86C781.29 390.66 780.3 372.39 780.32 351.88C780.33 340.96 779.35 333.3 779.35 321.89L778.41 276.88C778.43 270.26 777.39 268.27 777.39 261.95C777.37 253.19 778.23 239.3 777.15 231.2L774.58 187.88C774.08 180.99 776.04 178.29 771.62 174.94C769.12 180.32 766.63 237.19 765.81 252.91C765.3 262.65 766.25 272.63 765.11 281.18C762.95 297.49 765.69 319.13 763.32 335.31L760.97 445.86C760.93 455.22 761.95 462.51 761.95 472.84C761.95 494.53 762.11 506.05 763.83 527.88L766.76 579.82C766.82 585.1 767.51 587.07 767.76 592.79C768.04 598.9 769.63 600.29 770.65 604.8Z"/>
    <path d="M819.96 517.83C822.73 512.41 822.37 508.52 822.94 500.91L825.06 473.12C826.44 462.6 827.71 415.31 827.68 405.84C827.65 398.62 828.7 394.8 828.67 386.87L828.67 335.89C828.67 313.69 827.69 294.4 827.7 272.91C827.71 261.54 826.73 253.63 826.73 241.92C826.73 236.6 826.83 231.19 826.77 225.88C826.7 220.02 825.72 217.67 825.75 210.94C825.9 184.78 823.9 159.52 823.86 132.92L820.93 87.97L818.03 87.97L816.09 113.96C815.26 131.77 814.22 134.56 814.19 153.98C814.19 159.99 813.22 161.23 813.16 166.9C813.1 171.45 813.43 176.46 813.2 180.94C812.94 185.91 812.19 188.58 812.22 194.93C812.3 210.21 810.2 234.61 810.28 248.9C810.48 283.93 808.49 324.22 808.36 359.88L814.16 494.83C814.61 504.4 814.35 513.94 819.96 517.83Z"/>
    <path d="M855.74 254.91L859.47 376.02C860.42 384.89 860.27 400.2 862.1 413.29C863.18 421.02 861.29 426.34 866.38 429.86C871.35 426.09 870.26 405.37 871.91 392.59L874.11 350.88C874.1 342.78 875.1 337.82 875.11 330.92C875.12 323.59 875.09 316.24 875.08 308.9C875.07 300.43 876.1 295.4 876.07 287.93L875.1 181.92C875.13 175.1 874.06 172.78 874.09 165.97L873.14 131.96C872.86 126.67 873.13 120.34 873.16 114.95C873.2 107.94 872.15 105.43 872.15 99C872.14 93.33 872.16 87.64 872.18 81.97C872.24 70.37 870.2 46.75 870.25 31.99C870.27 24.46 869.51 4.67 867.34 0C862.9 3.36 865.02 5.88 864.17 12.72C863.66 16.8 863.63 23.51 862.92 28.41L859.75 91.12C859.23 95.91 859.59 102.96 859.62 107.98C859.66 114.98 858.62 117.49 858.61 123.92C858.55 168.13 855.74 210.12 855.74 254.91Z"/>
    <path d="M903.12 400.87L903.1 454.87C903.07 462.09 904.12 465.91 904.09 473.84C904.06 481.2 904.53 486.02 905 491.89C905.55 498.71 904.97 505.16 905.76 511.1C906.55 517.1 905.69 523.14 906.58 529.25C907.11 532.9 906.88 535.14 906.96 538.85L909.33 566.39C910.43 574.42 909.15 577.19 912.79 582.81C919.23 578.35 916.62 569.93 918.03 560.24C919.07 553.11 919.37 541.07 919.54 533.8C919.71 526.34 921.31 515.34 921.52 507.86C921.65 503.38 921.19 498.3 921.54 493.89C922.81 478.12 922.52 469.26 922.46 452.85C922.42 443.13 923.43 436.27 923.43 425.86L922.46 342.89C922.46 332.46 921.47 325.9 921.49 315.9C921.5 311.22 921.53 306.54 921.53 301.87C921.52 295.86 920.55 294.62 920.49 288.94C920.43 284.3 920.53 279.54 920.55 274.88C920.57 268.76 919.68 267.15 919.53 261.95C918.98 242.91 918.5 225.97 918.6 206.92C918.64 197.58 917.67 190.24 917.66 179.91C917.65 171.19 915.69 161.71 915.69 152.95C909.74 153.46 912.25 157.26 911.26 164.36L907 256.93C907.04 263.93 906 266.44 905.99 272.87C905.93 316.32 903.12 356.83 903.12 400.87Z"/>
    <path d="M961.14 665.78C966.53 657.46 965.11 636.25 966.11 626.94C968.2 607.57 968.33 582.95 969.79 564.76L970.81 499.83C970.81 454.49 968.48 410.53 967.94 365.84C967.87 359.87 966.9 356.9 966.93 349.89C966.96 344.22 966.98 338.52 966.97 332.85C966.96 326.42 965.92 323.91 965.96 316.91C966.1 291.7 965.18 275.64 964.04 250.92C963.84 246.67 963.37 247.23 963.14 242.84C962.87 237.51 964.24 238.28 961.14 235.92C958.1 238.22 959.54 235.68 959.15 240.87L957.83 260.49C955.48 276.72 954.93 323.45 954.4 341.92C954.25 347.13 953.35 348.73 953.38 354.86L952.47 396.9C952.46 402.91 951.5 404.15 951.43 409.82L950.24 506.1C951.21 513.41 950.5 525.93 950.5 533.82C950.5 538.5 950.46 543.18 950.47 547.85C950.48 554.03 951.49 555.6 951.5 561.78C951.52 573.32 955.04 640.99 956.96 655.1C957.78 661.15 957.21 663.06 961.14 665.78Z"/>
  </g>
  <g id="logo-wordmark">
    <path d="M754.21 744.75L795.2 783.35C797.11 785.08 796.5 784.54 798.69 785.74L822.86 762.75L822.86 804.74C822.78 818.95 819.5 816.73 842.2 816.73L842.2 717.76C839.04 718.63 823.96 734.1 820.7 737.51L804.72 752.98C801.6 755.75 800.75 754.52 799.66 758.75C795.06 757.48 771.39 732.15 765.82 727.76C762.23 724.93 758.69 719 754.21 717.76L754.21 744.75Z"/>
    <path d="M504.74 785.74C512.05 780.68 522.73 767.69 529.88 762.75L529.88 816.73L548.25 816.73C548.25 802.97 547.43 763.8 548.81 754.33C550.18 744.96 550.03 725.64 548.25 717.76C542.94 721.44 535.97 729.43 532.05 733L504.74 758.75L488.59 743.46C486.58 741.72 485.09 739.95 483.23 738L461.23 717.76C461.23 753.67 457.35 739.01 475.98 758.49L504.74 785.74Z"/>
    <path d="M881.85 632.79C887.07 655.99 871.52 672.78 857.67 672.78C848.49 672.78 841.32 672.61 834.11 664.15C832.77 662.57 833.33 664.04 832.53 661.78C829.82 662.43 828.44 663.34 825.41 664.41L776.85 680.18C773.61 681.14 771.78 682.03 768.72 682.77L768.72 684.77C810.88 694.93 857.21 690.86 889.35 659.53L894.89 654.27C919.1 629.51 912.8 632.76 909.32 620.38C908.06 615.93 906.91 612.73 906.02 608.8L904.09 608.8C903.32 611.77 901.74 612.87 899.82 615.38L881.85 632.79Z"/>
    <path d="M535.68 632.79C535.68 634.87 549.62 650.47 552.97 653.91C553.11 654.05 553.3 654.27 553.44 654.42C566.85 668.17 584.58 679.45 603.01 685.15C624.29 691.73 648.31 689.77 669.93 686.61C673.04 686.15 677.48 685.05 680.72 684.77L631.55 667.63C626.59 665.73 621.68 663.16 615.94 661.78C614.11 667.02 603.5 672.78 597.57 672.78C587.64 672.78 581.7 672.59 573.32 663.85C563.06 653.15 565.94 641.32 566.63 632.79L548.65 615.39C545.99 611.81 545.7 609.69 542.45 608.8C542.2 611.98 540.25 616.3 539.14 620.37C538.18 623.91 535.68 629.63 535.68 632.79Z"/>
    <path d="M893.45 760.75L893.45 763.75L912.79 763.75C913.1 759.84 914.2 756.45 915.69 753.75C931.25 725.69 965.87 738.49 967.91 763.75L987.24 763.75C987.24 716.87 927.53 704.06 905.6 733.32C904.31 735.04 904.11 735.05 902.89 736.51C901.13 738.6 900.15 740.59 898.68 743.16C896.79 746.43 893.45 756.16 893.45 760.75Z"/>
    <path d="M593.7 763.75L613.04 763.75C614.56 760.46 614.6 757.38 616.31 754.13C617.5 751.87 620.36 747.72 621.94 745.96C632.83 733.88 660.29 733.48 667.68 759.24C669.33 765 666.64 763.75 685.56 763.75C692.66 763.75 683.51 742.53 681.29 739.17C677.67 733.71 674.98 731.32 669.68 727.18C651.24 712.75 623.72 714.81 607.45 731.98C599.63 740.24 594.67 751.7 593.7 763.75Z"/>
    <path d="M637.21 818.73C654.31 818.73 661.87 816.74 674.77 804.58L679.91 798.9C685.65 791.33 687.64 782.95 688.46 772.74L668.15 772.74C668.15 786.37 656.04 798.73 642.05 798.73C627.33 798.73 614.01 787.6 614.01 772.74L593.7 772.74C594.14 793.23 614.18 818.73 637.21 818.73Z"/>
    <path d="M936 818.73C945.61 818.73 952.72 818.95 961.46 814.07L974.46 804.51C982.68 796.57 987.24 785.28 987.24 772.74L967.91 772.74C967.64 776.04 966.1 780.26 965.02 782.76C954.42 807.44 915.19 802.57 912.79 772.74L893.45 772.74C893.45 795.15 914.51 818.73 936 818.73Z"/>
    <path d="M754.21 816.73L773.55 816.73L773.55 775.74C773.55 772.96 757.51 757.66 754.21 756.75L754.21 816.73Z"/>
    <path d="M461.23 816.73L479.6 816.73L479.6 774.74C479.6 771.5 473.49 767.94 471.12 765.51C467.34 761.65 466.04 759.38 461.23 756.75L461.23 816.73Z"/>
  </g>
</svg>
